<?xml version="1.0" encoding="UTF-8" standalone="no"?>
<!DOCTYPE svg PUBLIC "-//W3C//DTD SVG 1.1//EN" "http://www.w3.org/Graphics/SVG/1.1/DTD/svg11.dtd">
<svg width="100%" height="100%" viewBox="0 0 300 300" version="1.1" xmlns="http://www.w3.org/2000/svg" xmlns:xlink="http://www.w3.org/1999/xlink" xml:space="preserve" xmlns:serif="http://www.serif.com/" style="fill-rule:evenodd;clip-rule:evenodd;stroke-linejoin:round;stroke-miterlimit:1.41421;">
    <g transform="matrix(1.22555,0,0,1.22555,-39.6769,-37.5412)">
        <rect x="-1.265" y="-1.084" width="302.169" height="301.252" style="fill:rgb(105,44,70);"/>
    </g>
    <g transform="matrix(-1.11781,0.673696,-0.4716,-0.782489,459.09,133.406)">
        <path d="M209.172,38.59L216.781,104.072L235.675,52.004L231.707,106.834L265.68,49.044L245.767,112.25L284.646,70.871L258.42,120.114L313.585,78.815L269.181,130.122L322.127,105.731L277.636,141.891L345.594,123.371L283.46,154.968L342.411,151.278L286.429,168.85L356.834,175.927L286.429,183.004L342.411,200.577L283.46,196.887L345.594,228.484L277.636,209.963L322.127,246.124L269.181,221.732L313.585,273.04L258.42,231.741L284.646,280.984L245.767,239.604L265.68,302.811L231.707,245.021L235.675,299.85L216.781,247.782L209.172,313.265L201.563,247.782L182.669,299.85L186.637,245.021L152.664,302.811L172.577,239.604L133.698,280.984L159.924,231.741L104.759,273.04L149.163,221.732L96.217,246.124L140.708,209.963L72.75,228.484L134.884,196.887L75.933,200.577L131.915,183.004L61.51,175.927L131.915,168.85L75.933,151.278L134.884,154.968L72.75,123.371L140.708,141.891L96.217,105.731L149.163,130.122L104.759,78.815L159.924,120.114L133.698,70.871L172.577,112.25L152.664,49.044L186.637,106.834L182.669,52.004L201.563,104.072L209.172,38.59Z" style="fill:url(#_Linear1);"/>
    </g>
    <g transform="matrix(2.08407,0,0,1.54111,14.6927,-134.257)">
        <g transform="matrix(5.25759,-2.3357,0.169612,8.89623,-170.512,-1506.02)">
            <g transform="matrix(1,0,0,1,28.782,199.091)">
                <text x="0px" y="0px" style="font-family:'Impact', sans-serif;font-stretch:condensed;font-size:12px;">N</text>
            </g>
            <g transform="matrix(1,0,0,1,35.977,199.091)">
                <text x="0px" y="0px" style="font-family:'Impact', sans-serif;font-stretch:condensed;font-size:12px;">R</text>
            </g>
        </g>
        <g transform="matrix(5.29288,-2.35137,0.0438569,8.6703,-142.961,-1460.6)">
            <g transform="matrix(1,0,0,1,28.782,199.091)">
                <text x="0px" y="0px" style="font-family:'Impact', sans-serif;font-stretch:condensed;font-size:12px;fill:rgb(255,123,51);">N</text>
            </g>
            <g transform="matrix(1,0,0,1,35.977,199.091)">
                <text x="0px" y="0px" style="font-family:'Impact', sans-serif;font-stretch:condensed;font-size:12px;fill:rgb(255,123,51);">R</text>
            </g>
        </g>
    </g>
    <g transform="matrix(1.03466,0,0,0.953623,-18.9674,-7.93565)">
        <g transform="matrix(1.22555,0,0,1.57986,-52.0324,-147.841)">
            <ellipse cx="192.029" cy="250.325" rx="66.623" ry="41.104" style="fill:rgb(128,89,89);"/>
        </g>
        <g transform="matrix(1.64816,0,0,1.60854,-120.984,-136.891)">
            <ellipse cx="184.627" cy="231.039" rx="45.195" ry="31.169" style="fill:rgb(128,89,89);"/>
        </g>
        <g transform="matrix(1.48968,0,0,1.37109,-90.977,-74.3586)">
            <ellipse cx="184.627" cy="231.039" rx="45.195" ry="31.169" style="fill:rgb(128,89,89);"/>
        </g>
        <g transform="matrix(0.822215,0.191425,-0.191425,0.822215,79.7157,-0.0667208)">
            <g transform="matrix(1.28626,0.0602195,-0.0562927,1.20239,9.35334,-75.4841)">
                <path d="M175.666,237.857C175.666,234.954 173.612,232.597 171.083,232.597L151.807,232.597C149.277,232.597 147.224,234.954 147.224,237.857L147.224,248.377C147.224,251.28 149.277,253.636 151.807,253.636L171.083,253.636C173.612,253.636 175.666,251.28 175.666,248.377L175.666,237.857Z" style="fill:rgb(128,89,89);"/>
            </g>
            <g transform="matrix(1.28767,0.00218959,-0.00204681,1.2037,-0.165794,-62.1495)">
                <path d="M175.666,237.857C175.666,234.954 173.619,232.597 171.098,232.597L151.792,232.597C149.271,232.597 147.224,234.954 147.224,237.857L147.224,248.377C147.224,251.28 149.271,253.636 151.792,253.636L171.098,253.636C173.619,253.636 175.666,251.28 175.666,248.377L175.666,237.857Z" style="fill:rgb(128,89,89);"/>
            </g>
        </g>
        <g transform="matrix(0.73678,-0.315337,0.315337,0.73678,-20.6182,154.24)">
            <g transform="matrix(1.28626,0.0602195,-0.0562927,1.20239,9.35334,-75.4841)">
                <path d="M175.666,237.857C175.666,234.954 173.597,232.597 171.049,232.597L151.841,232.597C149.293,232.597 147.224,234.954 147.224,237.857L147.224,248.377C147.224,251.28 149.293,253.636 151.841,253.636L171.049,253.636C173.597,253.636 175.666,251.28 175.666,248.377L175.666,237.857Z" style="fill:rgb(128,89,89);"/>
            </g>
            <g transform="matrix(1.28767,0.00218959,-0.00204681,1.2037,-0.165794,-62.1495)">
                <path d="M175.666,237.857C175.666,234.954 173.587,232.597 171.027,232.597L151.863,232.597C149.303,232.597 147.224,234.954 147.224,237.857L147.224,248.377C147.224,251.28 149.303,253.636 151.863,253.636L171.027,253.636C173.587,253.636 175.666,251.28 175.666,248.377L175.666,237.857Z" style="fill:rgb(128,89,89);"/>
            </g>
        </g>
        <g transform="matrix(0.169358,-0.531628,0.531628,0.169358,12.2088,329.521)">
            <g transform="matrix(1.28626,0.0602195,-0.0562927,1.20239,9.35334,-75.4841)">
                <path d="M175.666,237.857C175.666,234.954 173.325,232.597 170.443,232.597L152.447,232.597C149.564,232.597 147.224,234.954 147.224,237.857L147.224,248.377C147.224,251.28 149.564,253.636 152.447,253.636L170.443,253.636C173.325,253.636 175.666,251.28 175.666,248.377L175.666,237.857Z" style="fill:rgb(128,89,89);"/>
            </g>
            <g transform="matrix(1.28767,0.00218959,-0.00204681,1.2037,-0.165794,-62.1495)">
                <path d="M175.666,237.857C175.666,234.954 173.314,232.597 170.418,232.597L152.472,232.597C149.576,232.597 147.224,234.954 147.224,237.857L147.224,248.377C147.224,251.28 149.576,253.636 152.472,253.636L170.418,253.636C173.314,253.636 175.666,251.28 175.666,248.377L175.666,237.857Z" style="fill:rgb(128,89,89);"/>
            </g>
        </g>
        <g transform="matrix(0.887097,-0.431762,0.431762,0.887097,-121.842,121.841)">
            <g transform="matrix(1.28626,0.0602195,-0.0562927,1.20239,9.35334,-75.4841)">
                <path d="M175.666,237.857C175.666,234.954 173.586,232.597 171.025,232.597L151.865,232.597C149.303,232.597 147.224,234.954 147.224,237.857L147.224,248.377C147.224,251.28 149.303,253.636 151.865,253.636L171.025,253.636C173.586,253.636 175.666,251.28 175.666,248.377L175.666,237.857Z" style="fill:rgb(128,89,89);"/>
            </g>
            <g transform="matrix(1.28767,0.00218959,-0.00204681,1.2037,-0.165794,-62.1495)">
                <path d="M175.666,237.857C175.666,234.954 173.575,232.597 171,232.597L151.889,232.597C149.314,232.597 147.224,234.954 147.224,237.857L147.224,248.377C147.224,251.28 149.314,253.636 151.889,253.636L171,253.636C173.575,253.636 175.666,251.28 175.666,248.377L175.666,237.857Z" style="fill:rgb(128,89,89);"/>
            </g>
        </g>
    </g>
    <g transform="matrix(1.2924,0,0,1.19118,-66.4809,-83.6864)">
        <g transform="matrix(1.22555,0,0,1.57986,-51.8524,-153.96)">
            <ellipse cx="192.029" cy="250.325" rx="66.623" ry="41.104" style="fill:rgb(208,150,134);"/>
        </g>
        <g transform="matrix(1.64816,0,0,1.60854,-120.804,-143.009)">
            <ellipse cx="184.627" cy="231.039" rx="45.195" ry="31.169" style="fill:rgb(213,118,83);"/>
        </g>
        <g transform="matrix(1.48968,0,0,1.37109,-90.797,-80.477)">
            <ellipse cx="184.627" cy="231.039" rx="45.195" ry="31.169" style="fill:rgb(223,94,46);"/>
        </g>
        <g transform="matrix(0.822215,0.191425,-0.191425,0.822215,79.8957,-6.18506)">
            <g transform="matrix(1.28626,0.0602195,-0.0562927,1.20239,9.35334,-75.4841)">
                <path d="M175.666,237.857C175.666,234.954 173.612,232.597 171.083,232.597L151.807,232.597C149.277,232.597 147.224,234.954 147.224,237.857L147.224,248.377C147.224,251.28 149.277,253.636 151.807,253.636L171.083,253.636C173.612,253.636 175.666,251.28 175.666,248.377L175.666,237.857Z" style="fill:rgb(224,153,75);"/>
            </g>
            <g transform="matrix(1.28767,0.00218959,-0.00204681,1.2037,-0.165794,-62.1495)">
                <path d="M175.666,237.857C175.666,234.954 173.619,232.597 171.098,232.597L151.792,232.597C149.271,232.597 147.224,234.954 147.224,237.857L147.224,248.377C147.224,251.28 149.271,253.636 151.792,253.636L171.098,253.636C173.619,253.636 175.666,251.28 175.666,248.377L175.666,237.857Z" style="fill:rgb(239,202,162);"/>
            </g>
        </g>
        <g transform="matrix(0.73678,-0.315337,0.315337,0.73678,-20.4381,148.122)">
            <g transform="matrix(1.28626,0.0602195,-0.0562927,1.20239,9.35334,-75.4841)">
                <path d="M175.666,237.857C175.666,234.954 173.597,232.597 171.049,232.597L151.841,232.597C149.293,232.597 147.224,234.954 147.224,237.857L147.224,248.377C147.224,251.28 149.293,253.636 151.841,253.636L171.049,253.636C173.597,253.636 175.666,251.28 175.666,248.377L175.666,237.857Z" style="fill:rgb(224,153,75);"/>
            </g>
            <g transform="matrix(1.28767,0.00218959,-0.00204681,1.2037,-0.165794,-62.1495)">
                <path d="M175.666,237.857C175.666,234.954 173.587,232.597 171.027,232.597L151.863,232.597C149.303,232.597 147.224,234.954 147.224,237.857L147.224,248.377C147.224,251.28 149.303,253.636 151.863,253.636L171.027,253.636C173.587,253.636 175.666,251.28 175.666,248.377L175.666,237.857Z" style="fill:rgb(239,202,162);"/>
            </g>
        </g>
        <g transform="matrix(0.169358,-0.531628,0.531628,0.169358,12.3888,323.403)">
            <g transform="matrix(1.28626,0.0602195,-0.0562927,1.20239,9.35334,-75.4841)">
                <path d="M175.666,237.857C175.666,234.954 173.325,232.597 170.443,232.597L152.447,232.597C149.564,232.597 147.224,234.954 147.224,237.857L147.224,248.377C147.224,251.28 149.564,253.636 152.447,253.636L170.443,253.636C173.325,253.636 175.666,251.28 175.666,248.377L175.666,237.857Z" style="fill:rgb(224,153,75);"/>
            </g>
            <g transform="matrix(1.28767,0.00218959,-0.00204681,1.2037,-0.165794,-62.1495)">
                <path d="M175.666,237.857C175.666,234.954 173.314,232.597 170.418,232.597L152.472,232.597C149.576,232.597 147.224,234.954 147.224,237.857L147.224,248.377C147.224,251.28 149.576,253.636 152.472,253.636L170.418,253.636C173.314,253.636 175.666,251.28 175.666,248.377L175.666,237.857Z" style="fill:rgb(239,202,162);"/>
            </g>
        </g>
        <g transform="matrix(0.887097,-0.431762,0.431762,0.887097,-121.662,115.722)">
            <g transform="matrix(1.28626,0.0602195,-0.0562927,1.20239,9.35334,-75.4841)">
                <path d="M175.666,237.857C175.666,234.954 173.586,232.597 171.025,232.597L151.865,232.597C149.303,232.597 147.224,234.954 147.224,237.857L147.224,248.377C147.224,251.28 149.303,253.636 151.865,253.636L171.025,253.636C173.586,253.636 175.666,251.28 175.666,248.377L175.666,237.857Z" style="fill:rgb(224,153,75);"/>
            </g>
            <g transform="matrix(1.28767,0.00218959,-0.00204681,1.2037,-0.165794,-62.1495)">
                <path d="M175.666,237.857C175.666,234.954 173.575,232.597 171,232.597L151.889,232.597C149.314,232.597 147.224,234.954 147.224,237.857L147.224,248.377C147.224,251.28 149.314,253.636 151.889,253.636L171,253.636C173.575,253.636 175.666,251.28 175.666,248.377L175.666,237.857Z" style="fill:rgb(239,202,162);"/>
            </g>
        </g>
    </g>
    <defs>
        <linearGradient id="_Linear1" x1="0" y1="0" x2="1" y2="0" gradientUnits="userSpaceOnUse" gradientTransform="matrix(295.325,0,0,295.325,61.5097,175.927)"><stop offset="0" style="stop-color:rgb(255,141,71);stop-opacity:0.737255"/><stop offset="0.06" style="stop-color:rgb(255,149,68);stop-opacity:0.529412"/><stop offset="0.15" style="stop-color:rgb(255,172,61);stop-opacity:0.576471"/><stop offset="0.3" style="stop-color:rgb(255,193,54);stop-opacity:0.764706"/><stop offset="0.47" style="stop-color:rgb(255,211,48);stop-opacity:0.929412"/><stop offset="1" style="stop-color:rgb(255,218,46);stop-opacity:1"/></linearGradient>
    </defs>
</svg>
