<?xml version="1.0" encoding="UTF-8" standalone="no"?>
<!DOCTYPE svg PUBLIC "-//W3C//DTD SVG 1.1//EN" "http://www.w3.org/Graphics/SVG/1.1/DTD/svg11.dtd">
<svg width="100%" height="100%" viewBox="0 0 300 300" version="1.1" xmlns="http://www.w3.org/2000/svg" xmlns:xlink="http://www.w3.org/1999/xlink" xml:space="preserve" xmlns:serif="http://www.serif.com/" style="fill-rule:evenodd;clip-rule:evenodd;stroke-linejoin:round;stroke-miterlimit:1.41421;">
    <g transform="matrix(4.31877,-1.91862,0.0357854,7.0746,-106.413,-1154.88)">
        <text x="28.782px" y="199.091px" style="font-family:'Impact', sans-serif;font-stretch:condensed;font-size:12px;">N<tspan x="35.977px 42.807px 47.16px 54.318px 61.149px 67.781px 71.764px 78.688px " y="199.091px 199.091px 199.091px 199.091px 199.091px 199.091px 199.091px 199.091px ">etRecipe</tspan></text>
    </g>
    <g transform="matrix(4.31877,-1.91862,0.0357854,7.0746,-102.413,-1151.88)">
        <text x="28.782px" y="199.091px" style="font-family:'Impact', sans-serif;font-stretch:condensed;font-size:12px;fill:rgb(247,144,226);">N<tspan x="35.977px 42.807px 47.16px 54.318px 61.149px 67.781px 71.764px 78.688px " y="199.091px 199.091px 199.091px 199.091px 199.091px 199.091px 199.091px 199.091px ">etRecipe</tspan></text>
    </g>
    <g transform="matrix(1.03466,0,0,0.953623,-18.9674,-7.93565)">
        <g transform="matrix(1,0,0,1.2891,-7.79224,-86.9792)">
            <ellipse cx="192.029" cy="250.325" rx="66.623" ry="41.104" style="fill:rgb(128,89,89);"/>
        </g>
        <g transform="matrix(1.34483,0,0,1.3125,-64.0539,-78.0438)">
            <ellipse cx="184.627" cy="231.039" rx="45.195" ry="31.169" style="fill:rgb(128,89,89);"/>
        </g>
        <g transform="matrix(1.21552,0,0,1.11875,-39.5694,-27.0203)">
            <ellipse cx="184.627" cy="231.039" rx="45.195" ry="31.169" style="fill:rgb(128,89,89);"/>
        </g>
        <g transform="matrix(0.670893,0.156195,-0.156195,0.670893,99.7087,33.5988)">
            <g transform="matrix(1.28626,0.0602195,-0.0562927,1.20239,9.35334,-75.4841)">
                <path d="M175.666,237.857C175.666,234.954 173.612,232.597 171.083,232.597L151.807,232.597C149.277,232.597 147.224,234.954 147.224,237.857L147.224,248.377C147.224,251.28 149.277,253.636 151.807,253.636L171.083,253.636C173.612,253.636 175.666,251.28 175.666,248.377L175.666,237.857Z" style="fill:rgb(128,89,89);"/>
            </g>
            <g transform="matrix(1.28767,0.00218959,-0.00204681,1.2037,-0.165794,-62.1495)">
                <path d="M175.666,237.857C175.666,234.954 173.619,232.597 171.098,232.597L151.792,232.597C149.271,232.597 147.224,234.954 147.224,237.857L147.224,248.377C147.224,251.28 149.271,253.636 151.792,253.636L171.098,253.636C173.619,253.636 175.666,251.28 175.666,248.377L175.666,237.857Z" style="fill:rgb(128,89,89);"/>
            </g>
        </g>
        <g transform="matrix(0.601182,-0.257302,0.257302,0.601182,17.8405,159.507)">
            <g transform="matrix(1.28626,0.0602195,-0.0562927,1.20239,9.35334,-75.4841)">
                <path d="M175.666,237.857C175.666,234.954 173.597,232.597 171.049,232.597L151.841,232.597C149.293,232.597 147.224,234.954 147.224,237.857L147.224,248.377C147.224,251.28 149.293,253.636 151.841,253.636L171.049,253.636C173.597,253.636 175.666,251.28 175.666,248.377L175.666,237.857Z" style="fill:rgb(128,89,89);"/>
            </g>
            <g transform="matrix(1.28767,0.00218959,-0.00204681,1.2037,-0.165794,-62.1495)">
                <path d="M175.666,237.857C175.666,234.954 173.587,232.597 171.027,232.597L151.863,232.597C149.303,232.597 147.224,234.954 147.224,237.857L147.224,248.377C147.224,251.28 149.303,253.636 151.863,253.636L171.027,253.636C173.587,253.636 175.666,251.28 175.666,248.377L175.666,237.857Z" style="fill:rgb(128,89,89);"/>
            </g>
        </g>
        <g transform="matrix(0.138189,-0.433786,0.433786,0.138189,44.6259,302.529)">
            <g transform="matrix(1.28626,0.0602195,-0.0562927,1.20239,9.35334,-75.4841)">
                <path d="M175.666,237.857C175.666,234.954 173.325,232.597 170.443,232.597L152.447,232.597C149.564,232.597 147.224,234.954 147.224,237.857L147.224,248.377C147.224,251.28 149.564,253.636 152.447,253.636L170.443,253.636C173.325,253.636 175.666,251.28 175.666,248.377L175.666,237.857Z" style="fill:rgb(128,89,89);"/>
            </g>
            <g transform="matrix(1.28767,0.00218959,-0.00204681,1.2037,-0.165794,-62.1495)">
                <path d="M175.666,237.857C175.666,234.954 173.314,232.597 170.418,232.597L152.472,232.597C149.576,232.597 147.224,234.954 147.224,237.857L147.224,248.377C147.224,251.28 149.576,253.636 152.472,253.636L170.418,253.636C173.314,253.636 175.666,251.28 175.666,248.377L175.666,237.857Z" style="fill:rgb(128,89,89);"/>
            </g>
        </g>
        <g transform="matrix(0.723834,-0.3523,0.3523,0.723834,-64.754,133.07)">
            <g transform="matrix(1.28626,0.0602195,-0.0562927,1.20239,9.35334,-75.4841)">
                <path d="M175.666,237.857C175.666,234.954 173.586,232.597 171.025,232.597L151.865,232.597C149.303,232.597 147.224,234.954 147.224,237.857L147.224,248.377C147.224,251.28 149.303,253.636 151.865,253.636L171.025,253.636C173.586,253.636 175.666,251.28 175.666,248.377L175.666,237.857Z" style="fill:rgb(128,89,89);"/>
            </g>
            <g transform="matrix(1.28767,0.00218959,-0.00204681,1.2037,-0.165794,-62.1495)">
                <path d="M175.666,237.857C175.666,234.954 173.575,232.597 171,232.597L151.889,232.597C149.314,232.597 147.224,234.954 147.224,237.857L147.224,248.377C147.224,251.28 149.314,253.636 151.889,253.636L171,253.636C173.575,253.636 175.666,251.28 175.666,248.377L175.666,237.857Z" style="fill:rgb(128,89,89);"/>
            </g>
        </g>
    </g>
    <g transform="matrix(1.2924,0,0,1.19118,-66.4809,-83.6864)">
        <g transform="matrix(1,0,0,1.2891,-7.79224,-86.9792)">
            <ellipse cx="192.029" cy="250.325" rx="66.623" ry="41.104" style="fill:rgb(208,150,134);"/>
        </g>
        <g transform="matrix(1.34483,0,0,1.3125,-64.0539,-78.0438)">
            <ellipse cx="184.627" cy="231.039" rx="45.195" ry="31.169" style="fill:rgb(213,118,83);"/>
        </g>
        <g transform="matrix(1.21552,0,0,1.11875,-39.5694,-27.0203)">
            <ellipse cx="184.627" cy="231.039" rx="45.195" ry="31.169" style="fill:rgb(223,94,46);"/>
        </g>
        <g transform="matrix(0.670893,0.156195,-0.156195,0.670893,99.7087,33.5988)">
            <g transform="matrix(1.28626,0.0602195,-0.0562927,1.20239,9.35334,-75.4841)">
                <path d="M175.666,237.857C175.666,234.954 173.612,232.597 171.083,232.597L151.807,232.597C149.277,232.597 147.224,234.954 147.224,237.857L147.224,248.377C147.224,251.28 149.277,253.636 151.807,253.636L171.083,253.636C173.612,253.636 175.666,251.28 175.666,248.377L175.666,237.857Z" style="fill:rgb(224,153,75);"/>
            </g>
            <g transform="matrix(1.28767,0.00218959,-0.00204681,1.2037,-0.165794,-62.1495)">
                <path d="M175.666,237.857C175.666,234.954 173.619,232.597 171.098,232.597L151.792,232.597C149.271,232.597 147.224,234.954 147.224,237.857L147.224,248.377C147.224,251.28 149.271,253.636 151.792,253.636L171.098,253.636C173.619,253.636 175.666,251.28 175.666,248.377L175.666,237.857Z" style="fill:rgb(239,202,162);"/>
            </g>
        </g>
        <g transform="matrix(0.601182,-0.257302,0.257302,0.601182,17.8405,159.507)">
            <g transform="matrix(1.28626,0.0602195,-0.0562927,1.20239,9.35334,-75.4841)">
                <path d="M175.666,237.857C175.666,234.954 173.597,232.597 171.049,232.597L151.841,232.597C149.293,232.597 147.224,234.954 147.224,237.857L147.224,248.377C147.224,251.28 149.293,253.636 151.841,253.636L171.049,253.636C173.597,253.636 175.666,251.28 175.666,248.377L175.666,237.857Z" style="fill:rgb(224,153,75);"/>
            </g>
            <g transform="matrix(1.28767,0.00218959,-0.00204681,1.2037,-0.165794,-62.1495)">
                <path d="M175.666,237.857C175.666,234.954 173.587,232.597 171.027,232.597L151.863,232.597C149.303,232.597 147.224,234.954 147.224,237.857L147.224,248.377C147.224,251.28 149.303,253.636 151.863,253.636L171.027,253.636C173.587,253.636 175.666,251.28 175.666,248.377L175.666,237.857Z" style="fill:rgb(239,202,162);"/>
            </g>
        </g>
        <g transform="matrix(0.138189,-0.433786,0.433786,0.138189,44.6259,302.529)">
            <g transform="matrix(1.28626,0.0602195,-0.0562927,1.20239,9.35334,-75.4841)">
                <path d="M175.666,237.857C175.666,234.954 173.325,232.597 170.443,232.597L152.447,232.597C149.564,232.597 147.224,234.954 147.224,237.857L147.224,248.377C147.224,251.28 149.564,253.636 152.447,253.636L170.443,253.636C173.325,253.636 175.666,251.28 175.666,248.377L175.666,237.857Z" style="fill:rgb(224,153,75);"/>
            </g>
            <g transform="matrix(1.28767,0.00218959,-0.00204681,1.2037,-0.165794,-62.1495)">
                <path d="M175.666,237.857C175.666,234.954 173.314,232.597 170.418,232.597L152.472,232.597C149.576,232.597 147.224,234.954 147.224,237.857L147.224,248.377C147.224,251.28 149.576,253.636 152.472,253.636L170.418,253.636C173.314,253.636 175.666,251.28 175.666,248.377L175.666,237.857Z" style="fill:rgb(239,202,162);"/>
            </g>
        </g>
        <g transform="matrix(0.723834,-0.3523,0.3523,0.723834,-64.754,133.07)">
            <g transform="matrix(1.28626,0.0602195,-0.0562927,1.20239,9.35334,-75.4841)">
                <path d="M175.666,237.857C175.666,234.954 173.586,232.597 171.025,232.597L151.865,232.597C149.303,232.597 147.224,234.954 147.224,237.857L147.224,248.377C147.224,251.28 149.303,253.636 151.865,253.636L171.025,253.636C173.586,253.636 175.666,251.28 175.666,248.377L175.666,237.857Z" style="fill:rgb(224,153,75);"/>
            </g>
            <g transform="matrix(1.28767,0.00218959,-0.00204681,1.2037,-0.165794,-62.1495)">
                <path d="M175.666,237.857C175.666,234.954 173.575,232.597 171,232.597L151.889,232.597C149.314,232.597 147.224,234.954 147.224,237.857L147.224,248.377C147.224,251.28 149.314,253.636 151.889,253.636L171,253.636C173.575,253.636 175.666,251.28 175.666,248.377L175.666,237.857Z" style="fill:rgb(239,202,162);"/>
            </g>
        </g>
    </g>
</svg>
