<?xml version="1.0" encoding="UTF-8" standalone="no"?>
<!DOCTYPE svg PUBLIC "-//W3C//DTD SVG 1.1//EN" "http://www.w3.org/Graphics/SVG/1.1/DTD/svg11.dtd">
<svg width="100%" height="100%" viewBox="0 0 40 40" version="1.1" xmlns="http://www.w3.org/2000/svg" xmlns:xlink="http://www.w3.org/1999/xlink" xml:space="preserve" xmlns:serif="http://www.serif.com/" style="fill-rule:evenodd;clip-rule:evenodd;stroke-linejoin:round;stroke-miterlimit:1.41421;">
    <g transform="matrix(1.19641,0,0,1.30129,-3.61117,-5.1635)">
        <g transform="matrix(1,0,0,0.667019,0,3.21534)">
            <path d="M34.771,6.518C34.771,5.314 34.062,4.337 33.189,4.337L6.281,4.337C5.408,4.337 4.699,5.314 4.699,6.518L4.699,10.88C4.699,12.083 5.408,13.06 6.281,13.06L33.189,13.06C34.062,13.06 34.771,12.083 34.771,10.88L34.771,6.518Z" style="fill:rgb(219,140,42);"/>
        </g>
        <g transform="matrix(1,0,0,0.667019,0,13.5351)">
            <path d="M34.771,6.518C34.771,5.314 34.062,4.337 33.189,4.337L6.281,4.337C5.408,4.337 4.699,5.314 4.699,6.518L4.699,10.88C4.699,12.083 5.408,13.06 6.281,13.06L33.189,13.06C34.062,13.06 34.771,12.083 34.771,10.88L34.771,6.518Z" style="fill:rgb(219,140,42);"/>
        </g>
        <g transform="matrix(1,0,0,0.667019,0,23.8548)">
            <path d="M34.771,6.518C34.771,5.314 34.062,4.337 33.189,4.337L6.281,4.337C5.408,4.337 4.699,5.314 4.699,6.518L4.699,10.88C4.699,12.083 5.408,13.06 6.281,13.06L33.189,13.06C34.062,13.06 34.771,12.083 34.771,10.88L34.771,6.518Z" style="fill:rgb(219,140,42);"/>
        </g>
    </g>
</svg>
